<?xml version="1.0" encoding="utf-8"?>
<!-- Generator: Adobe Illustrator 26.0.0, SVG Export Plug-In . SVG Version: 6.00 Build 0)  -->
<svg version="1.1" id="Layer_2" xmlns="http://www.w3.org/2000/svg" xmlns:xlink="http://www.w3.org/1999/xlink" x="0px" y="0px"
	 viewBox="0 0 3903.9 559.2" enable-background="new 0 0 3903.9 559.2" xml:space="preserve">
<g>
	<path fill="#FFFFFF" d="M274.7,337.4l-3.1,102c-12.2,7.8-23.5,15-31.1,19.9c-85.1-19.8-148.5-95.9-148.5-186.8
		c0-11.4,1-22.6,2.9-33.4c9.4,1.5,58.4,9,74.1,12.4c17.3,3.8,29.4,5.1,29.4,11s-16.8,10.1-22.2,12.5s-33.5,13.6-33.5,22.9
		c0,9.2,33.6,17.5,42.4,19.7C191,319.2,239,329.8,274.7,337.4z"/>
	<path fill="#FFFFFF" d="M432.5,395.3c2.5-6.1,3.7-13.3,3.7-22.2c0-24.2-22.5-33.8-36.5-37s-61.2-12.3-74.1-13.8
		c-4.1-0.5-16.2-2.3-31.3-4.6l-2.1-67.6c17.4-3.5,30.5-18.8,30.5-37.3c0-19.2-14.3-35.1-32.8-37.6l-2.9-92.4h-4.5l-2.8,92.4
		c-18.6,2.4-33,18.4-33,37.7c0,18.5,13.2,33.9,30.7,37.3l-2,64.6c-28.6-4.5-60-9.7-68.3-11.5c-15-3.2-28-5.9-28-11.5
		c0-5.6,13.4-12.5,19.5-15.2c6.1-2.8,26.1-7.9,26.1-15.5c0-7.6-22.3-11.6-35.2-13.5c-12.5-1.9-75.1-10.1-93.7-12.9
		c17.7-87.8,95.5-153.8,188.7-153.8c106.3,0,192.5,85.9,192.5,191.9C477.1,319.3,460.4,362.1,432.5,395.3z"/>
	<path fill="#FFFFFF" d="M360.1,369.3c-0.5,10.7-9.5,19.8-19.7,26.2c-4.1,2.5-22.3,14.2-42.8,27.3l-2.6-81
		c7.6,1.6,13.5,2.7,16.5,3.2C328,347.7,360.1,355.1,360.1,369.3z"/>
</g>
<g>
	<defs>
		<path id="SVGID_1_" d="M1125.3,88.7h-95v0H872.9c-45.3,0-78.5,33.1-78.5,78.2v209.3c0,31.5-22.6,54.6-53.7,54.6H635.4V456h106.9
			c45.3,0,78.5-33.1,78.5-78.2V168.5c0-31.5,22.6-54.6,53.7-54.6h155.8v342.9h26.4v-163h68.6c69.7,0,113.5-45.8,113.5-102.5
			C1238.8,134.9,1195,88.7,1125.3,88.7 M1122.7,268.5h-66V113.9h66c52.8,0,87.1,34.7,87.1,76.8
			C1209.8,233.8,1175.5,268.5,1122.7,268.5"/>
	</defs>
	<clipPath id="SVGID_00000150786610889595814340000004073158999413316769_">
		<use xlink:href="#SVGID_1_"  overflow="visible"/>
	</clipPath>
	<g clip-path="url(#SVGID_00000150786610889595814340000004073158999413316769_)">
		<defs>
			<rect id="SVGID_00000101073490692614073510000009859752391170351537_" x="635.4" y="88.7" width="603.4" height="368.1"/>
		</defs>
		<clipPath id="SVGID_00000041278255671147484370000007272802317870610073_">
			<use xlink:href="#SVGID_00000101073490692614073510000009859752391170351537_"  overflow="visible"/>
		</clipPath>
		
			<rect x="629.4" y="82.6" clip-path="url(#SVGID_00000041278255671147484370000007272802317870610073_)" fill="#FFFFFF" width="615.5" height="380.2"/>
	</g>
</g>
<g>
	<defs>
		<rect id="SVGID_00000109008412765143270410000014233193617296194220_" x="635.4" y="82.6" width="3198.2" height="374.1"/>
	</defs>
	<clipPath id="SVGID_00000055699428477480274810000018377855492265776548_">
		<use xlink:href="#SVGID_00000109008412765143270410000014233193617296194220_"  overflow="visible"/>
	</clipPath>
	<g clip-path="url(#SVGID_00000055699428477480274810000018377855492265776548_)" enable-background="new    ">
		<g>
			<defs>
				<rect id="SVGID_00000155861230024681360030000002550906424744942759_" x="1293.1" y="82.6" width="2540.4" height="374.1"/>
			</defs>
			<clipPath id="SVGID_00000163030425333188312390000000445200187693959341_">
				<use xlink:href="#SVGID_00000155861230024681360030000002550906424744942759_"  overflow="visible"/>
			</clipPath>
			<g clip-path="url(#SVGID_00000163030425333188312390000000445200187693959341_)">
				<defs>
					<rect id="SVGID_00000171719832620918429990000014094047841088386950_" x="3411.2" y="88.7" width="30.2" height="368.1"/>
				</defs>
				<clipPath id="SVGID_00000051348859364504690620000008507751401048164224_">
					<use xlink:href="#SVGID_00000171719832620918429990000014094047841088386950_"  overflow="visible"/>
				</clipPath>
				
					<rect x="3405.1" y="82.6" clip-path="url(#SVGID_00000051348859364504690620000008507751401048164224_)" fill="#FFFFFF" width="42.2" height="380.2"/>
			</g>
			<g clip-path="url(#SVGID_00000163030425333188312390000000445200187693959341_)">
				<defs>
					<path id="SVGID_00000099658873881072624080000015422695987304722879_" d="M3669.5,374.1V164.2c0-33.3-23.3-57.7-55.6-57.7
						c-32.3,0-55.6,24.4-55.6,57.7v287.3h-26.5V164.7c0-47.3,34.4-82.1,82-82.1c47.6,0,82,34.8,82,82.1v209.9
						c0,33.3,23.3,58.2,55.6,58.2c32.3,0,55.6-24.9,55.6-58.2V87.8h26.5v286.3c0,47.8-34.4,82.6-82,82.6
						C3703.9,456.7,3669.5,421.9,3669.5,374.1"/>
				</defs>
				<clipPath id="SVGID_00000183247839361792209090000008795656570377215913_">
					<use xlink:href="#SVGID_00000099658873881072624080000015422695987304722879_"  overflow="visible"/>
				</clipPath>
				<g clip-path="url(#SVGID_00000183247839361792209090000008795656570377215913_)">
					<defs>
						<rect id="SVGID_00000039098839453521052380000014772913102680081557_" x="1293.1" y="82.6" width="2540.4" height="374.1"/>
					</defs>
					<clipPath id="SVGID_00000084517409889159155920000017216929655258753964_">
						<use xlink:href="#SVGID_00000039098839453521052380000014772913102680081557_"  overflow="visible"/>
					</clipPath>
					
						<rect x="3525.8" y="76.6" clip-path="url(#SVGID_00000084517409889159155920000017216929655258753964_)" fill="#FFFFFF" width="313.8" height="386.2"/>
				</g>
			</g>
			<g clip-path="url(#SVGID_00000163030425333188312390000000445200187693959341_)">
				<defs>
					<path id="SVGID_00000006700832546197892610000005457567587965772165_" d="M2433.5,270.1c32.7-16.3,51.9-47.3,51.9-84.7
						c0-56.3-41-96.8-96.5-96.8h-100.1v368.1h100.1c57,0,99-42.1,99-99.9C2487.9,317.9,2468.7,286.9,2433.5,270.1z M2314.7,113.9
						h72.1c39.9,0,70,30.5,70,71.5c0,41.5-30.1,72-70,72h-72.1V113.9z M2386.8,431.5h-72.1V282.7h72.1c41.5,0,72.6,31.5,72.6,74.1
						C2459.4,400,2428.3,431.5,2386.8,431.5z"/>
				</defs>
				<clipPath id="SVGID_00000103955986312465943460000011303564412407138476_">
					<use xlink:href="#SVGID_00000006700832546197892610000005457567587965772165_"  overflow="visible"/>
				</clipPath>
				<g clip-path="url(#SVGID_00000103955986312465943460000011303564412407138476_)">
					<defs>
						<rect id="SVGID_00000007408205391854239530000014310382128536143027_" x="1293.1" y="82.6" width="2540.4" height="374.1"/>
					</defs>
					<clipPath id="SVGID_00000023974143367276603100000010412087289937083809_">
						<use xlink:href="#SVGID_00000007408205391854239530000014310382128536143027_"  overflow="visible"/>
					</clipPath>
					
						<rect x="2282.7" y="82.6" clip-path="url(#SVGID_00000023974143367276603100000010412087289937083809_)" fill="#FFFFFF" width="211.2" height="380.2"/>
				</g>
			</g>
			<g clip-path="url(#SVGID_00000163030425333188312390000000445200187693959341_)">
				<defs>
					<path id="SVGID_00000109714805707100712880000018208519397855772041_" d="M3381,429.9h-212.4v-342h-26.2v342.6
						c-12.9,0-44.8-0.1-45.5-0.1c-67.7,0-125.1-47.1-125.1-139c54.4-10.3,90.1-54.6,90.1-104.5c0-57.2-44.2-104.2-114.5-104.2h-95.9
						v182.6h-258.8V114.2H2783V87.9h-216.6v368.4H2783v-26.3h-190.4V291.6h258.8v165.2h26.6V291.1h65.9
						c0,106.6,61.9,165.2,153.4,165.2c0.6,0,49.8,0,50.4,0.1v-0.1H3381V429.9z M2878,265.4V108.3h66.6c53.3,0,87.9,35.3,87.9,78
						c0,43.8-34.6,79.1-87.9,79.1H2878z"/>
				</defs>
				<clipPath id="SVGID_00000106115557856510948110000008747292030651505045_">
					<use xlink:href="#SVGID_00000109714805707100712880000018208519397855772041_"  overflow="visible"/>
				</clipPath>
				<g clip-path="url(#SVGID_00000106115557856510948110000008747292030651505045_)">
					<defs>
						<rect id="SVGID_00000090976370079327127130000015726192757831024786_" x="1293.1" y="82.6" width="2540.4" height="374.1"/>
					</defs>
					<clipPath id="SVGID_00000002375630804664580400000017284636951335537320_">
						<use xlink:href="#SVGID_00000090976370079327127130000015726192757831024786_"  overflow="visible"/>
					</clipPath>
					
						<rect x="2560.3" y="76.6" clip-path="url(#SVGID_00000002375630804664580400000017284636951335537320_)" fill="#FFFFFF" width="826.7" height="386.2"/>
				</g>
			</g>
			<g clip-path="url(#SVGID_00000163030425333188312390000000445200187693959341_)">
				<defs>
					<path id="SVGID_00000087402791218902397600000010487849597506943624_" d="M1893.1,114.2h190.5V87.9h-216.7v177.4H1606V114.2
						h190.5V87.9h-216.7v342.6c-14.6,0-40.6-0.1-41.1-0.1c-67.7,0-125.2-47.1-125.2-139c54.5-10.3,90.2-54.6,90.2-104.5
						c0-57.2-44.2-104.2-114.6-104.2h-95.9v374.1h26.6V291.1h65.9c0,106.6,62,165.2,153.5,165.2c0.6,0,49.8,0,50.4,0.1v-0.1h207
						v-26.3H1606V291.6h260.8v164.6h216.7v-26.3h-190.5V291.6h190.3v-26.3h-190.3v-9V114.2z M1319.8,265.4V108.3h66.6
						c53.3,0,88,35.3,88,78c0,43.8-34.6,79.1-88,79.1H1319.8z"/>
				</defs>
				<clipPath id="SVGID_00000018209747584355889320000017533870687034144681_">
					<use xlink:href="#SVGID_00000087402791218902397600000010487849597506943624_"  overflow="visible"/>
				</clipPath>
				<g clip-path="url(#SVGID_00000018209747584355889320000017533870687034144681_)">
					<defs>
						<rect id="SVGID_00000116223866343194264920000016962822731585570967_" x="1293.1" y="82.6" width="2540.4" height="374.1"/>
					</defs>
					<clipPath id="SVGID_00000183935295584268145740000017738703301316069525_">
						<use xlink:href="#SVGID_00000116223866343194264920000016962822731585570967_"  overflow="visible"/>
					</clipPath>
					
						<rect x="1287.1" y="76.6" clip-path="url(#SVGID_00000183935295584268145740000017738703301316069525_)" fill="#FFFFFF" width="802.6" height="386.2"/>
				</g>
			</g>
		</g>
	</g>
</g>
</svg>
