<?xml version="1.0" encoding="UTF-8"?>
<svg width="2392px" height="9px" viewBox="0 0 2392 9" version="1.1" xmlns="http://www.w3.org/2000/svg" xmlns:xlink="http://www.w3.org/1999/xlink">
    <title>Stroke 1</title>
    <g id="KARTE" stroke="none" stroke-width="1" fill="none" fill-rule="evenodd">
        <g id="Desktop-INFO-Copy" transform="translate(-121.000000, -318.000000)" stroke="#FFFFFF" stroke-width="1.795">
            <path d="M122,322.5 C124.929751,317.833333 130.787274,317.833333 133.715046,322.5 C136.644797,327.166667 142.50232,327.166667 145.432071,322.5 C148.359843,317.833333 154.217366,317.833333 157.147117,322.5 C160.076868,327.166667 165.934391,327.166667 168.862163,322.5 C171.791914,317.833333 177.649437,317.833333 180.579188,322.5 C183.50696,327.166667 189.364483,327.166667 192.294234,322.5 C195.223985,317.833333 201.081508,317.833333 204.00928,322.5 C206.939031,327.166667 212.796554,327.166667 215.726305,322.5 C218.654077,317.833333 224.5116,317.833333 227.441351,322.5 C230.371102,327.166667 236.228625,327.166667 239.156397,322.5 C242.086148,317.833333 247.943671,317.833333 250.873422,322.5 C253.801194,327.166667 259.658717,327.166667 262.588468,322.5 C265.51624,317.833333 271.375742,317.833333 274.303514,322.5 C277.233265,327.166667 283.090788,327.166667 286.020539,322.5 C288.948311,317.833333 294.805834,317.833333 297.735585,322.5 C300.663357,327.166667 306.522859,327.166667 309.450631,322.5 C312.380382,317.833333 318.237905,317.833333 321.165677,322.5 C324.095428,327.166667 329.952951,327.166667 332.882702,322.5 C335.810474,317.833333 341.669976,317.833333 344.597748,322.5 C347.527499,327.166667 353.385022,327.166667 356.312794,322.5 C359.242545,317.833333 365.100068,317.833333 368.029819,322.5 C370.957591,327.166667 376.817093,327.166667 379.744865,322.5 C382.674616,317.833333 388.532139,317.833333 391.459911,322.5 C394.389662,327.166667 400.247185,327.166667 403.176936,322.5 C406.104708,317.833333 411.962231,317.833333 414.891982,322.5 C417.821733,327.166667 423.679256,327.166667 426.607028,322.5 C429.536779,317.833333 435.394302,317.833333 438.324053,322.5 C441.251825,327.166667 447.109348,327.166667 450.039099,322.5 C452.96885,317.833333 458.826373,317.833333 461.754145,322.5 C464.683896,327.166667 470.541419,327.166667 473.47117,322.5 C476.398942,317.833333 482.256465,317.833333 485.186216,322.5 C488.115968,327.166667 493.97349,327.166667 496.901262,322.5 C499.831013,317.833333 505.688536,317.833333 508.618288,322.5 C511.546059,327.166667 517.403582,327.166667 520.333333,322.5 C523.263085,317.833333 529.120607,317.833333 532.048379,322.5 C534.97813,327.166667 540.835653,327.166667 543.765405,322.5 C546.693176,317.833333 552.550699,317.833333 555.48045,322.5 C558.410202,327.166667 564.267725,327.166667 567.195496,322.5 C570.125247,317.833333 575.98277,317.833333 578.912522,322.5 C581.840293,327.166667 587.697816,327.166667 590.627567,322.5 C593.555339,317.833333 599.414842,317.833333 602.342613,322.5 C605.272364,327.166667 611.129887,327.166667 614.059639,322.5 C616.98741,317.833333 622.844933,317.833333 625.774684,322.5 C628.702456,327.166667 634.561959,327.166667 637.48973,322.5 C640.419482,317.833333 646.277004,317.833333 649.206756,322.5 C652.134527,327.166667 657.99205,327.166667 660.921802,322.5 C663.849573,317.833333 669.709076,317.833333 672.636847,322.5 C675.566599,327.166667 681.424121,327.166667 684.351893,322.5 C687.281644,317.833333 693.139167,317.833333 696.068919,322.5 C698.99669,327.166667 704.856193,327.166667 707.783964,322.5 C710.713716,317.833333 716.571239,317.833333 719.49901,322.5 C722.428761,327.166667 728.286284,327.166667 731.216036,322.5 C734.143807,317.833333 740.00331,317.833333 742.931081,322.5 C745.860833,327.166667 751.718356,327.166667 754.646127,322.5 C757.575879,317.833333 763.433401,317.833333 766.363153,322.5 C769.290924,327.166667 775.150427,327.166667 778.078198,322.5 C781.00795,317.833333 786.865473,317.833333 789.793244,322.5 C792.722996,327.166667 798.580518,327.166667 801.51027,322.5 C804.438041,317.833333 810.295564,317.833333 813.225316,322.5 C816.155067,327.166667 822.01259,327.166667 824.940361,322.5 C827.870113,317.833333 833.727636,317.833333 836.657387,322.5 C839.585158,327.166667 845.442681,327.166667 848.372433,322.5 C851.302184,317.833333 857.159707,317.833333 860.087478,322.5 C863.01723,327.166667 868.874753,327.166667 871.804504,322.5 C874.732275,317.833333 880.589798,317.833333 883.51955,322.5 C886.449301,327.166667 892.306824,327.166667 895.234595,322.5 C898.164347,317.833333 904.02187,317.833333 906.951621,322.5 C909.879393,327.166667 915.736915,327.166667 918.666667,322.5 C921.596418,317.833333 927.453941,317.833333 930.381712,322.5 C933.311464,327.166667 939.168987,327.166667 942.098738,322.5 C945.02651,317.833333 950.884032,317.833333 953.813784,322.5 C956.741555,327.166667 962.601058,327.166667 965.52883,322.5 C968.458581,317.833333 974.316104,317.833333 977.245855,322.5 C980.173627,327.166667 986.03115,327.166667 988.960901,322.5 C991.888672,317.833333 997.748175,317.833333 1000.67595,322.5 C1003.6057,327.166667 1009.46322,327.166667 1012.39297,322.5 C1015.32074,317.833333 1021.17827,317.833333 1024.10802,322.5 C1027.03579,327.166667 1032.89529,327.166667 1035.82306,322.5 C1038.75281,317.833333 1044.61034,317.833333 1047.53811,322.5 C1050.46786,327.166667 1056.32538,327.166667 1059.25513,322.5 C1062.18291,317.833333 1068.04241,317.833333 1070.97018,322.5 C1073.89993,327.166667 1079.75745,327.166667 1082.68523,322.5 C1085.61498,317.833333 1091.4725,317.833333 1094.40225,322.5 C1097.33002,327.166667 1103.18953,327.166667 1106.1173,322.5 C1109.04705,317.833333 1114.90457,317.833333 1117.83234,322.5 C1120.76209,327.166667 1126.61962,327.166667 1129.54937,322.5 C1132.47714,317.833333 1138.33466,317.833333 1141.26441,322.5 C1144.19417,327.166667 1150.05169,327.166667 1152.97946,322.5 C1155.90921,317.833333 1161.76673,317.833333 1164.69649,322.5 C1167.62426,327.166667 1173.48178,327.166667 1176.41153,322.5 C1179.34128,317.833333 1185.19881,317.833333 1188.12658,322.5 C1191.05633,327.166667 1196.91385,327.166667 1199.8436,322.5 C1202.77137,317.833333 1208.6289,317.833333 1211.55865,322.5 C1214.4884,327.166667 1220.34592,327.166667 1223.27369,322.5 C1226.20345,317.833333 1232.06097,317.833333 1234.99072,322.5 C1237.91849,327.166667 1243.77601,327.166667 1246.70577,322.5 C1249.63552,317.833333 1255.49304,317.833333 1258.42081,322.5 C1261.35056,327.166667 1267.20809,327.166667 1270.13784,322.5 C1273.06561,317.833333 1278.92313,317.833333 1281.85288,322.5 C1284.78263,327.166667 1290.64016,327.166667 1293.56793,322.5 C1296.49768,317.833333 1302.3552,317.833333 1305.28495,322.5 C1308.21273,327.166667 1314.07025,327.166667 1317,322.5 C1319.92777,317.833333 1325.78727,317.833333 1328.71505,322.5 C1331.6448,327.166667 1337.50232,327.166667 1340.43207,322.5 C1343.35984,317.833333 1349.21737,317.833333 1352.14712,322.5 C1355.07687,327.166667 1360.93439,327.166667 1363.86216,322.5 C1366.79191,317.833333 1372.64944,317.833333 1375.57919,322.5 C1378.50696,327.166667 1384.36448,327.166667 1387.29423,322.5 C1390.22201,317.833333 1396.08151,317.833333 1399.00928,322.5 C1401.93903,327.166667 1407.79655,327.166667 1410.72631,322.5 C1413.65408,317.833333 1419.5116,317.833333 1422.44135,322.5 C1425.36912,327.166667 1431.22863,327.166667 1434.1564,322.5 C1437.08615,317.833333 1442.94367,317.833333 1445.87342,322.5 C1448.80119,327.166667 1454.65872,327.166667 1457.58847,322.5 C1460.51624,317.833333 1466.37574,317.833333 1469.30351,322.5 C1472.23327,327.166667 1478.09079,327.166667 1481.01856,322.5 C1483.94831,317.833333 1489.80583,317.833333 1492.73559,322.5 C1495.66336,327.166667 1501.52286,327.166667 1504.45063,322.5 C1507.38038,317.833333 1513.23791,317.833333 1516.16568,322.5 C1519.09543,327.166667 1524.95295,327.166667 1527.8827,322.5 C1530.81047,317.833333 1536.668,317.833333 1539.59775,322.5 C1542.5275,327.166667 1548.38502,327.166667 1551.31279,322.5 C1554.24255,317.833333 1560.10007,317.833333 1563.02982,322.5 C1565.95759,327.166667 1571.81511,327.166667 1574.74487,322.5 C1577.67462,317.833333 1583.53214,317.833333 1586.45991,322.5 C1589.38966,327.166667 1595.24719,327.166667 1598.17694,322.5 C1601.10471,317.833333 1606.96223,317.833333 1609.89198,322.5 C1612.82173,327.166667 1618.67926,327.166667 1621.60703,322.5 C1624.53678,317.833333 1630.3943,317.833333 1633.32405,322.5 C1636.25183,327.166667 1642.10935,327.166667 1645.0391,322.5 C1647.96885,317.833333 1653.82637,317.833333 1656.75415,322.5 C1659.6839,327.166667 1665.54142,327.166667 1668.47117,322.5 C1671.39894,317.833333 1677.25647,317.833333 1680.18622,322.5 C1683.11597,327.166667 1688.97349,327.166667 1691.90126,322.5 C1694.83101,317.833333 1700.68854,317.833333 1703.61829,322.5 C1706.54606,327.166667 1712.40358,327.166667 1715.33333,322.5 C1718.26111,317.833333 1724.12061,317.833333 1727.04838,322.5 C1729.97813,327.166667 1735.83565,327.166667 1738.7654,322.5 C1741.69318,317.833333 1747.5507,317.833333 1750.48045,322.5 C1753.40822,327.166667 1759.26772,327.166667 1762.1955,322.5 C1765.12525,317.833333 1770.98277,317.833333 1773.91252,322.5 C1776.84029,327.166667 1782.69782,327.166667 1785.62757,322.5 C1788.55534,317.833333 1794.41484,317.833333 1797.34261,322.5 C1800.27236,327.166667 1806.12989,327.166667 1809.05766,322.5 C1811.98741,317.833333 1817.84493,317.833333 1820.77468,322.5 C1823.70246,327.166667 1829.56196,327.166667 1832.48973,322.5 C1835.41948,317.833333 1841.277,317.833333 1844.20478,322.5 C1847.13453,327.166667 1852.99205,327.166667 1855.9218,322.5 C1858.84957,317.833333 1864.70908,317.833333 1867.63685,322.5 C1870.5666,327.166667 1876.42412,327.166667 1879.35189,322.5 C1882.28164,317.833333 1888.13917,317.833333 1891.06892,322.5 C1893.99669,327.166667 1899.85421,327.166667 1902.78396,322.5 C1905.71372,317.833333 1911.57124,317.833333 1914.49901,322.5 C1917.42876,327.166667 1923.28628,327.166667 1926.21604,322.5 C1929.14381,317.833333 1935.00133,317.833333 1937.93108,322.5 C1940.86083,327.166667 1946.71836,327.166667 1949.64613,322.5 C1952.57588,317.833333 1958.4334,317.833333 1961.36315,322.5 C1964.29092,327.166667 1970.14845,327.166667 1973.0782,322.5 C1976.00795,317.833333 1981.86547,317.833333 1984.79324,322.5 C1987.723,327.166667 1993.58052,327.166667 1996.51027,322.5 C1999.43804,317.833333 2005.29556,317.833333 2008.22532,322.5 C2011.15507,327.166667 2017.01259,327.166667 2019.94036,322.5 C2022.87011,317.833333 2028.72764,317.833333 2031.65739,322.5 C2034.58516,327.166667 2040.44268,327.166667 2043.37243,322.5 C2046.30218,317.833333 2052.15971,317.833333 2055.08748,322.5 C2058.01723,327.166667 2063.87475,327.166667 2066.8045,322.5 C2069.73228,317.833333 2075.5898,317.833333 2078.51955,322.5 C2081.44732,327.166667 2087.30682,327.166667 2090.2346,322.5 C2093.16435,317.833333 2099.02187,317.833333 2101.95162,322.5 C2104.87939,327.166667 2110.73692,327.166667 2113.66667,322.5 C2116.59444,317.833333 2122.45394,317.833333 2125.38171,322.5 C2128.31146,327.166667 2134.16899,327.166667 2137.09874,322.5 C2140.02651,317.833333 2145.88403,317.833333 2148.81378,322.5 C2151.74156,327.166667 2157.60106,327.166667 2160.52883,322.5 C2163.45858,317.833333 2169.3161,317.833333 2172.24585,322.5 C2175.17363,327.166667 2181.03115,327.166667 2183.9609,322.5 C2186.88867,317.833333 2192.74817,317.833333 2195.67595,322.5 C2198.6057,327.166667 2204.46322,327.166667 2207.39099,322.5 C2210.32074,317.833333 2216.17827,317.833333 2219.10802,322.5 C2222.03579,327.166667 2227.89331,327.166667 2230.82306,322.5 C2233.75281,317.833333 2239.61034,317.833333 2242.53811,322.5 C2245.46786,327.166667 2251.32538,327.166667 2254.25513,322.5 C2257.18291,317.833333 2263.04043,317.833333 2265.97018,322.5 C2268.89993,327.166667 2274.75745,327.166667 2277.68523,322.5 C2280.61498,317.833333 2286.4725,317.833333 2289.40225,322.5 C2292.33002,327.166667 2298.18755,327.166667 2301.1173,322.5 C2304.04705,317.833333 2309.90457,317.833333 2312.83234,322.5 C2315.76209,327.166667 2321.61962,327.166667 2324.54937,322.5 C2327.47714,317.833333 2333.33466,317.833333 2336.26441,322.5 C2339.19417,327.166667 2345.05169,327.166667 2347.97946,322.5 C2350.90921,317.833333 2356.76673,317.833333 2359.69649,322.5 C2362.62426,327.166667 2368.48178,327.166667 2371.41153,322.5 C2374.34128,317.833333 2380.19881,317.833333 2383.12658,322.5 C2386.05633,327.166667 2391.91385,327.166667 2394.8436,322.5 C2397.77137,317.833333 2403.6289,317.833333 2406.55865,322.5 C2409.48642,327.166667 2415.34592,327.166667 2418.27369,322.5 C2421.20345,317.833333 2427.06097,317.833333 2429.99072,322.5 C2432.91849,327.166667 2438.77601,327.166667 2441.70577,322.5 C2444.63354,317.833333 2450.49304,317.833333 2453.42081,322.5 C2456.35056,327.166667 2462.20809,327.166667 2465.13784,322.5 C2468.06561,317.833333 2473.92313,317.833333 2476.85288,322.5 C2479.78263,327.166667 2485.64016,327.166667 2488.56793,322.5 C2491.49768,317.833333 2497.3552,317.833333 2500.28495,322.5 C2503.21273,327.166667 2509.07025,327.166667 2512,322.5" id="Stroke-1"></path>
        </g>
    </g>
</svg>