<svg xmlns:xlink="http://www.w3.org/1999/xlink" xmlns="http://www.w3.org/2000/svg" fill="none" viewBox="0 0 437 654" class="product-card_frame__3p3IG" width="451"  height="676" ><path fill="#CFFD3C" stroke="#000000" stroke-width="1.211px" d="M436 653H1.398L1 136.412s22.645-5.993 25.67-16.506c10.372-36.045 52.4-26.105 52.4-26.105-2.078-8.99 7.091-19.121 15.059-24.924 6.193-4.512 13.603-7.905 21.69-9.892 11.08-2.724 24.055-3.358 35.254-.75 1.52.354 3.049.737 4.489 1.255.733.267 2.778.895 3.041 1.584-6.646-18.022 6.384-34.18 31.648-38.324C215.515 18.606 217.648 1 217.648 1s2.126 17.613 27.398 21.75c25.264 4.143 38.302 20.302 31.648 38.324.254-.69 2.308-1.324 3.04-1.584 1.441-.518 2.969-.9 4.49-1.256 11.199-2.6 24.173-1.973 35.253.751 8.079 1.987 15.498 5.38 21.691 9.892 7.967 5.81 17.137 15.933 15.059 24.924 0 0 42.02-9.947 52.399 26.105 3.025 10.513 26.952 16.745 26.952 16.745L436 653z"></path></svg>